<svg width="36" height="36" viewBox="0 0 36 36" fill="none" xmlns="http://www.w3.org/2000/svg">
<path d="M35.82 9.16364C35.64 8.83636 35.46 8.50909 35.1 8.34546L19.08 0.327272C18.72 -3.16988e-07 18.36 0 18 0C17.64 0 17.28 0.163636 16.92 0.163636L0.9 8.34546C0.36 8.67273 0 9.32727 0 9.81818V26.1818C0 26.5091 -3.48687e-07 26.8364 0.36 27.1636C0.54 27.3273 0.720001 27.6545 1.08 27.6545L17.1 35.8364C17.28 36 17.64 36 18 36C18.36 36 18.72 35.8364 19.08 35.8364L35.1 27.6545C35.64 27.3273 36 26.6727 36 26.0182V9.81818C36 9.65455 36 9.32727 35.82 9.16364ZM23.94 18.4909V17.3455H25.56V15.8727H27.18V17.3455H28.8V18.4909H27.18V19.9636H25.56V18.4909H23.94ZM25.2 14.5636C23.76 12.4364 21.06 10.9636 18.18 10.9636C13.68 10.9636 10.08 14.2364 10.08 18.1636C10.08 22.0909 13.68 25.3636 18.18 25.3636C21.24 25.3636 23.94 23.8909 25.2 21.7636L29.52 24.0545C27.18 27.1636 22.86 29.4545 18 29.4545C10.8 29.4545 4.86 24.3818 4.86 18C4.86 11.6182 10.8 6.54545 18 6.54545C22.86 6.54545 27.18 8.83636 29.52 12.4364L25.2 14.5636ZM35.1 18.4909H33.48V19.9636H32.22V18.4909H30.24V17.3455H32.22V15.8727H33.48V17.3455H35.1V18.4909Z" fill="white"/>
</svg>
