<svg width="36" height="36" viewBox="0 0 36 36" fill="none" xmlns="http://www.w3.org/2000/svg">
<g clip-path="url(#clip0_217_28)">
<path d="M2.41255 8.80566C-0.771201 13.4571 -0.377453 19.5074 2.05705 24.4628C2.1133 24.5817 2.17517 24.6982 2.2348 24.8148L2.3473 25.0377C2.3698 25.0811 2.39455 25.1234 2.41817 25.1657C2.4598 25.2457 2.50255 25.3188 2.5453 25.3965L2.77817 25.8011L2.91092 26.0228L3.18092 26.4514L3.29567 26.6319C3.4228 26.8239 3.55217 27.0159 3.68605 27.2034L3.76255 27.3085C3.87851 27.4705 3.99703 27.6305 4.11805 27.7885L4.25305 27.9622L4.58155 28.3737L4.70755 28.5268C4.85717 28.7062 5.0113 28.8845 5.16542 29.0582C5.18117 29.0754 5.18792 29.0811 5.19242 29.0879C5.34526 29.2564 5.50053 29.4225 5.65817 29.5862L5.80779 29.7394L6.17904 30.1097L6.33092 30.2582C6.49798 30.4183 6.66791 30.5753 6.84054 30.7291L7.39854 31.2091L7.58979 31.3645L7.97567 31.6708L8.18154 31.8308L8.61467 32.1462L8.81717 32.2914C8.95554 32.3885 9.09617 32.4811 9.23792 32.5737L9.42017 32.6971C9.63729 32.8371 9.85672 32.9735 10.0783 33.1062L10.2605 33.2205L10.7555 33.5017C10.8455 33.5508 10.9378 33.5977 11.0289 33.6445L11.3822 33.8308L11.4643 33.8708L11.6105 33.9417L12.1708 34.2045L12.2889 34.2582C12.5052 34.3539 12.7231 34.4458 12.9425 34.5337L13.1 34.5977L13.7165 34.8297L13.7953 34.8571C14.0229 34.9367 14.2517 35.0129 14.4815 35.0857L14.648 35.1359C14.873 35.2079 15.116 35.2959 15.3568 35.3394C30.7625 38.1931 35.2355 25.9337 35.2355 25.9337C31.478 30.9074 24.8068 32.2194 18.473 30.7588C18.2334 30.7039 18.0005 30.6285 17.7677 30.5577L17.5922 30.5039C17.3644 30.4329 17.1379 30.3578 16.9127 30.2788L16.8193 30.2445C16.6188 30.1722 16.4193 30.0972 16.2208 30.0194L16.052 29.9508C15.8346 29.8639 15.6189 29.7725 15.4052 29.6765L15.2758 29.6194L14.7302 29.3611L14.5727 29.2845C14.4309 29.2159 14.2914 29.1394 14.1508 29.0559L13.8695 28.9074C13.6985 28.8159 13.532 28.7177 13.3633 28.6194L13.1923 28.5222C12.9708 28.3894 12.7514 28.253 12.5342 28.1131C12.4745 28.0742 12.416 28.0331 12.3564 27.9931L11.8884 27.6765C11.8367 27.6422 11.7759 27.6034 11.7377 27.5691L11.2944 27.2434L11.0975 27.0925L10.6982 26.7748L10.5204 26.6297L10.0232 26.2034C10.0051 26.1873 9.98632 26.1721 9.96692 26.1577L9.44379 25.6742L9.29754 25.5302L8.92404 25.1531L8.77779 25.0045C8.62029 24.8411 8.46729 24.6765 8.32779 24.5085C8.31992 24.5005 8.31204 24.4925 8.30529 24.4834C8.14599 24.3058 7.98996 24.1252 7.83729 23.9417L7.72479 23.7931L7.38729 23.3702L7.27479 23.2137L6.88554 22.6879C3.3553 17.8285 2.09305 11.1108 4.8988 5.60225M12.3013 4.88797C9.99729 8.25594 10.1222 12.7737 11.9188 16.3257C12.2198 16.9243 12.5604 17.5017 12.938 18.0537C13.2834 18.5565 13.6659 19.1542 14.1238 19.5577C14.2903 19.7439 14.4635 19.9234 14.6413 20.1028L14.7763 20.2399C14.9483 20.4103 15.1241 20.5765 15.3039 20.7382C15.3118 20.7439 15.3174 20.7519 15.3264 20.7577C15.5312 20.9405 15.7382 21.1005 15.9485 21.2811L16.088 21.3919C16.2991 21.5573 16.5144 21.717 16.7338 21.8708L16.7529 21.8845C16.8497 21.9531 16.9487 22.0159 17.0477 22.0822C17.0949 22.1131 17.1399 22.1462 17.1872 22.1759C17.3444 22.2785 17.5039 22.3775 17.6653 22.4731L17.7328 22.5131L18.1558 22.7417C18.2053 22.7702 18.2683 22.7942 18.3065 22.8217L18.6024 22.9771C18.617 22.9851 18.6328 22.9908 18.6474 22.9977C18.8504 23.1003 19.0559 23.1975 19.2639 23.2891L19.3989 23.3462C19.5665 23.4185 19.7353 23.4879 19.9052 23.5542L20.1212 23.6342C20.2752 23.6911 20.4301 23.7456 20.5858 23.7977L20.7962 23.8662C21.0178 23.9348 21.2462 24.0262 21.4678 24.0639C33.3624 26.0662 36.1085 16.7497 36.1085 16.7497C33.6335 20.3725 28.841 22.0982 23.7245 20.7497C23.4984 20.6893 23.2737 20.6233 23.0507 20.5519C22.9832 20.5314 22.9157 20.5085 22.8482 20.4857L22.3757 20.3211L22.1507 20.2411C21.9808 20.1745 21.812 20.1052 21.6444 20.0331L21.5072 19.9759C21.2979 19.8835 21.0908 19.786 20.8862 19.6834L20.5745 19.5234L20.3945 19.4297C20.2622 19.3567 20.1309 19.2816 20.0008 19.2045L19.9063 19.1508C19.7454 19.055 19.5863 18.956 19.4293 18.8537C19.3809 18.8228 19.3337 18.7885 19.2853 18.7565L18.9759 18.5485C18.758 18.3951 18.5442 18.2358 18.3347 18.0708L18.1884 17.9565C15.9384 16.1599 14.1744 13.7051 13.3307 10.9234C12.4464 8.03766 12.6365 4.79768 14.1688 2.16911M20.6173 1.95997C19.2605 3.99997 19.1255 6.51194 20.0683 8.75423C21.0617 11.1348 23.0979 13.0011 25.475 13.8971L25.7698 14.0114L25.9003 14.0525L26.3244 14.1668C32.8922 15.4559 34.6719 10.7428 35.1478 10.0491C33.5874 12.3314 30.965 12.8788 27.7475 12.0857C27.4933 12.0228 27.2143 11.9291 26.969 11.8411C26.6543 11.7278 26.3456 11.5977 26.0443 11.4514C25.4725 11.172 24.9294 10.8355 24.4232 10.4468C21.5443 8.22851 19.7555 3.98397 21.6343 0.537109" fill="white"/>
</g>
<defs>
<clipPath id="clip0_217_28">
<rect width="36" height="36" fill="white"/>
</clipPath>
</defs>
</svg>
