<svg width="36" height="37" viewBox="0 0 36 37" fill="none" xmlns="http://www.w3.org/2000/svg">
<path fill-rule="evenodd" clip-rule="evenodd" d="M17.9965 21.5696V36.0929C8.05236 36.0858 -0.00702802 27.9559 4.599e-06 17.9334C0.00703722 9.19389 6.18168 1.70187 14.7052 0.0999756L17.9965 3.42425H26.9982C31.9633 3.42425 35.993 7.47859 36 12.4827V28.856C35.993 32.8608 32.765 36.1 28.7986 36.1V32.4709C30.7888 32.4709 32.3993 30.8478 32.3993 28.8419C32.3993 26.8359 30.7888 25.2128 28.7986 25.2128H21.5972L17.9965 21.5696ZM27.9055 16.126C29.3964 16.126 30.606 14.9068 30.606 13.4042C30.606 11.9015 29.3964 10.6824 27.9055 10.6824C26.4145 10.6824 25.2049 11.9015 25.2049 13.4042C25.2049 14.9068 26.4145 16.126 27.9055 16.126Z" fill="white"/>
</svg>
