<svg width="513" height="513" viewBox="0 0 513 513" fill="none" xmlns="http://www.w3.org/2000/svg">
<rect x="0.966797" y="0.0634766" width="512" height="512" rx="102.4" fill="url(#paint0_linear_1452_1805)"/>
<g opacity="0.2">
<path fill-rule="evenodd" clip-rule="evenodd" d="M106.49 112.733C103.557 113.779 99.077 116.651 96.5335 119.116C87.1971 128.166 87.625 120.805 88.0514 265.008L88.4352 395.231L92.58 401.194C95.0038 404.681 99.2682 408.445 102.845 410.254L108.965 413.349H396.679L402.799 410.254C406.376 408.445 410.64 404.681 413.064 401.194L417.209 395.231L417.592 265.008C418.023 119.463 418.548 127.73 408.284 118.457C405.355 115.812 400.594 112.991 397.704 112.187C394.15 111.201 346.99 110.746 252.134 110.78C136.359 110.824 110.888 111.165 106.49 112.733ZM390.384 317.056H115.26V138.225H390.384V317.056ZM257.734 154.142C256.546 155.332 255.568 157.653 255.561 159.301C255.54 163.873 248.282 175.546 239.681 184.836C229.926 195.372 215.032 206.611 198.167 216.162C181.036 225.863 177.907 228.17 174.623 233.511C162.749 252.832 178.646 275.35 202.198 272.569L208.662 271.806L222.144 286.869C229.56 295.153 237.1 302.327 238.902 302.81C242.203 303.696 256.165 300.053 259.356 297.474C260.303 296.71 261.076 295.313 261.076 294.37C261.076 293.428 256.521 285.533 250.954 276.827L240.833 260.996L245.795 259.374C258.814 255.121 293.099 256.475 295.828 261.35C297.691 264.677 304.907 263.948 306.587 260.264C307.793 257.614 304.869 249.149 287.925 206.271C276.875 178.302 266.813 154.647 265.567 153.701C262.548 151.409 260.344 151.533 257.734 154.142ZM299.814 160.987C297.364 166.363 297.871 167.478 304.826 172.01C317.092 180.004 325.55 197.666 323.841 211.717C323.373 215.557 322.625 220.304 322.178 222.266C321.485 225.309 322.007 226.098 325.738 227.643C331.063 229.85 331.825 228.976 334.11 218.04C338.446 197.293 327.91 173.237 309.297 161.379C305.933 159.236 302.783 157.484 302.296 157.484C301.809 157.484 300.692 159.06 299.814 160.987ZM292.037 179.837C290.321 183.827 290.365 184.491 292.447 186.011C302.219 193.151 305.804 200.527 304.763 211.358C304.148 217.769 304.336 218.26 308.2 220.257C313.689 223.095 315.091 221.417 315.836 211.105C316.757 198.377 311.178 186.339 300.815 178.693C294.996 174.4 294.337 174.485 292.037 179.837ZM149.815 355.656C160.478 360.997 168.982 365.57 168.712 365.817C168.441 366.065 159.401 370.675 148.619 376.06L129.016 385.855V365.9C129.016 354.924 129.334 345.944 129.722 345.944C130.111 345.944 139.153 350.314 149.815 355.656ZM376.628 372.08H197.797V358.324H376.628V372.08Z" fill="white"/>
<path fill-rule="evenodd" clip-rule="evenodd" d="M391.775 133.432H112.873C111.216 133.432 109.873 134.775 109.873 136.432V388.891C109.873 390.548 111.216 391.891 112.873 391.891H391.776C393.432 391.891 394.776 390.548 394.776 388.891V136.432C394.776 134.775 393.432 133.432 391.775 133.432ZM112.873 110.432C98.5136 110.432 86.873 122.072 86.873 136.432V388.891C86.873 403.251 98.5137 414.891 112.873 414.891H391.776C406.135 414.891 417.776 403.251 417.776 388.891V136.432C417.776 122.072 406.135 110.432 391.775 110.432H112.873Z" fill="white"/>
</g>
<path fill-rule="evenodd" clip-rule="evenodd" d="M106.49 106.733C103.557 107.779 99.077 110.651 96.5335 113.116C87.1971 122.166 87.625 114.805 88.0514 259.008L88.4352 389.231L92.58 395.194C95.0038 398.681 99.2682 402.445 102.845 404.254L108.965 407.349H396.679L402.799 404.254C406.376 402.445 410.64 398.681 413.064 395.194L417.209 389.231L417.592 259.008C418.023 113.463 418.548 121.73 408.284 112.457C405.355 109.812 400.594 106.991 397.704 106.187C394.15 105.201 346.99 104.746 252.134 104.78C136.359 104.824 110.888 105.165 106.49 106.733ZM390.384 311.056H115.26V132.225H390.384V311.056ZM257.734 148.142C256.546 149.332 255.568 151.653 255.561 153.301C255.54 157.873 248.282 169.546 239.681 178.836C229.926 189.372 215.032 200.611 198.167 210.162C181.036 219.863 177.907 222.17 174.623 227.511C162.749 246.832 178.646 269.35 202.198 266.569L208.662 265.806L222.144 280.869C229.56 289.153 237.1 296.327 238.902 296.81C242.203 297.696 256.165 294.053 259.356 291.474C260.303 290.71 261.076 289.313 261.076 288.37C261.076 287.428 256.521 279.533 250.954 270.827L240.833 254.996L245.795 253.374C258.814 249.121 293.099 250.475 295.828 255.35C297.691 258.677 304.907 257.948 306.587 254.264C307.793 251.614 304.869 243.149 287.925 200.271C276.875 172.302 266.813 148.647 265.567 147.701C262.548 145.409 260.344 145.533 257.734 148.142ZM299.814 154.987C297.364 160.363 297.871 161.478 304.826 166.01C317.092 174.004 325.55 191.666 323.841 205.717C323.373 209.557 322.625 214.304 322.178 216.266C321.485 219.309 322.007 220.098 325.738 221.643C331.063 223.85 331.825 222.976 334.11 212.04C338.446 191.293 327.91 167.237 309.297 155.379C305.933 153.236 302.783 151.484 302.296 151.484C301.809 151.484 300.692 153.06 299.814 154.987ZM292.037 173.837C290.321 177.827 290.365 178.491 292.447 180.011C302.219 187.151 305.804 194.527 304.763 205.358C304.148 211.769 304.336 212.26 308.2 214.257C313.689 217.095 315.091 215.417 315.836 205.105C316.757 192.377 311.178 180.339 300.815 172.693C294.996 168.4 294.337 168.485 292.037 173.837ZM149.815 349.656C160.478 354.997 168.982 359.57 168.712 359.817C168.441 360.065 159.401 364.675 148.619 370.06L129.016 379.855V359.9C129.016 348.924 129.334 339.944 129.722 339.944C130.111 339.944 139.153 344.314 149.815 349.656ZM376.628 366.08H197.797V352.324H376.628V366.08Z" fill="white"/>
<path fill-rule="evenodd" clip-rule="evenodd" d="M391.775 127.432H112.873C111.216 127.432 109.873 128.775 109.873 130.432V382.891C109.873 384.548 111.216 385.891 112.873 385.891H391.776C393.432 385.891 394.776 384.548 394.776 382.891V130.432C394.776 128.775 393.432 127.432 391.775 127.432ZM112.873 104.432C98.5136 104.432 86.873 116.072 86.873 130.432V382.891C86.873 397.251 98.5137 408.891 112.873 408.891H391.776C406.135 408.891 417.776 397.251 417.776 382.891V130.432C417.776 116.072 406.135 104.432 391.775 104.432H112.873Z" fill="white"/>
<defs>
<linearGradient id="paint0_linear_1452_1805" x1="482.244" y1="512.063" x2="-16.3991" y2="-87.2723" gradientUnits="userSpaceOnUse">
<stop stop-color="#6B46FF"/>
<stop offset="1" stop-color="#A28BFF"/>
</linearGradient>
</defs>
</svg>
