<svg width="513" height="512" viewBox="0 0 513 512" fill="none" xmlns="http://www.w3.org/2000/svg">
<rect x="0.966797" width="512" height="512" rx="102.4" fill="url(#paint0_linear_1558_1230)"/>
<path opacity="0.2" fill-rule="evenodd" clip-rule="evenodd" d="M247.94 110.273C231.691 121.88 212.968 131.484 196.128 136.852C183.566 140.856 176.49 142.201 162.147 143.313C152.078 144.094 150.432 144.5 148.164 146.768C146.752 148.18 145.167 151.183 144.644 153.44C143.39 158.844 143.429 218.877 144.698 236.23C148.186 283.919 172.932 322.808 217.319 350.35C230.447 358.496 252.75 369.055 256.831 369.056C263.361 369.058 291.305 354.746 307.773 342.965C319.037 334.908 332.431 322.175 340.393 311.957C358.009 289.349 367.201 265.233 369.339 236.003C370.595 218.831 370.624 158.81 369.378 153.44C368.854 151.183 367.27 148.18 365.857 146.768C363.586 144.496 361.963 144.098 351.875 143.338C345.598 142.865 336.762 141.707 332.239 140.764C311.5 136.441 286.737 125.027 266.081 110.273C262.418 107.656 259.862 106.63 257.011 106.63C254.16 106.63 251.604 107.656 247.94 110.273ZM270.399 192.072C289.536 201.852 292.677 228.107 276.343 241.761L271.707 245.636V260.214C271.707 276.645 270.552 280.745 264.968 284.15C260.754 286.72 253.268 286.72 249.054 284.15C243.47 280.745 242.315 276.645 242.315 260.214V245.636L237.678 241.761C219.034 226.176 226.311 195.734 250.188 189.431C255.381 188.06 265.011 189.318 270.399 192.072ZM100.325 279.924C86.705 283.133 76.4609 295.71 76.4609 309.224C76.4609 327.522 94.6807 342.442 112.413 338.666C119.889 337.073 128.157 331.413 131.608 325.525L134.394 320.77H141.676C150.527 320.77 155.553 318.842 157.744 314.606C159.82 310.59 159.82 307.857 157.744 303.841C155.553 299.605 150.527 297.677 141.676 297.677H134.394L131.608 292.923C128.319 287.31 120.045 281.459 113.201 279.905C107.692 278.655 105.7 278.658 100.325 279.924ZM399.553 280.203C392.647 282.133 386.278 286.831 382.623 292.691L379.513 297.677H372.288C368.314 297.677 363.456 298.349 361.492 299.168C357.801 300.712 354.634 305.353 354.634 309.224C354.634 313.094 357.801 317.736 361.492 319.279C363.456 320.099 368.34 320.77 372.345 320.77H379.627L382.413 325.525C385.865 331.413 394.132 337.073 401.608 338.666C411.805 340.838 422.658 336.977 430.09 328.534C440.075 317.191 439.915 300.875 429.709 289.524C422.082 281.041 409.961 277.295 399.553 280.203ZM150.465 348.224C149.311 348.855 145.033 352.634 140.96 356.623L133.555 363.875L128.013 362.685C109.183 358.647 91.8633 372.774 91.7972 392.223C91.7279 412.922 112.118 426.791 132.441 419.866C137.795 418.042 145.565 411.212 148.299 405.928C151.096 400.518 152.1 392.861 150.878 386.252L149.78 380.308L155.335 374.682L160.891 369.057H171.545C180.636 369.057 182.593 368.746 184.888 366.941C188.874 363.805 190.306 358.583 188.418 354.063C185.739 347.651 183.804 347.009 167.289 347.045C158.681 347.063 151.692 347.554 150.465 348.224ZM329.563 348.725C325.739 351.403 323.841 356.94 325.266 361.258C327.395 367.707 330.374 369.057 342.477 369.057H353.13L358.687 374.682L364.242 380.308L363.144 386.252C361.223 396.643 363.968 405.683 371.257 412.973C376.697 418.413 382.28 420.842 390.498 421.343C403.603 422.142 413.8 416.383 419.343 405.055C430.226 382.81 410.295 357.477 386.008 362.685L380.467 363.875L373.061 356.611C368.988 352.615 364.624 348.822 363.363 348.18C362.008 347.491 355.125 347.013 346.538 347.013C334.804 347.013 331.537 347.343 329.563 348.725Z" fill="white"/>
<path fill-rule="evenodd" clip-rule="evenodd" d="M247.94 102.126C231.691 113.733 212.968 123.336 196.128 128.705C183.566 132.708 176.49 134.054 162.147 135.166C152.078 135.947 150.432 136.353 148.164 138.62C146.752 140.033 145.167 143.035 144.644 145.292C143.39 150.697 143.429 210.73 144.698 228.083C148.186 275.772 172.932 314.66 217.319 342.203C230.447 350.348 252.75 360.907 256.831 360.908C263.361 360.911 291.305 346.599 307.773 334.818C319.037 326.76 332.431 314.027 340.393 303.81C358.009 281.202 367.201 257.086 369.339 227.856C370.595 210.684 370.624 150.662 369.378 145.292C368.854 143.035 367.27 140.033 365.857 138.62C363.586 136.349 361.963 135.951 351.875 135.191C345.598 134.717 336.762 133.559 332.239 132.617C311.5 128.293 286.737 116.88 266.081 102.126C262.418 99.509 259.862 98.4824 257.011 98.4824C254.16 98.4824 251.604 99.509 247.94 102.126ZM270.399 183.924C289.536 193.705 292.677 219.96 276.343 233.613L271.707 237.489V252.066C271.707 268.497 270.552 272.598 264.968 276.003C260.754 278.572 253.268 278.572 249.054 276.003C243.47 272.598 242.315 268.497 242.315 252.066V237.489L237.678 233.613C219.034 218.028 226.311 187.587 250.188 181.283C255.381 179.912 265.011 181.17 270.399 183.924ZM100.325 271.777C86.705 274.986 76.4609 287.562 76.4609 301.076C76.4609 319.375 94.6807 334.294 112.413 330.518C119.889 328.926 128.157 323.266 131.608 317.377L134.394 312.623H141.676C150.527 312.623 155.553 310.695 157.744 306.459C159.82 302.443 159.82 299.709 157.744 295.693C155.553 291.458 150.527 289.529 141.676 289.529H134.394L131.608 284.775C128.319 279.162 120.045 273.311 113.201 271.758C107.692 270.508 105.7 270.511 100.325 271.777ZM399.553 272.056C392.647 273.985 386.278 278.684 382.623 284.543L379.513 289.529H372.288C368.314 289.529 363.456 290.201 361.492 291.021C357.801 292.564 354.634 297.206 354.634 301.076C354.634 304.946 357.801 309.588 361.492 311.131C363.456 311.951 368.34 312.623 372.345 312.623H379.627L382.413 317.377C385.865 323.266 394.132 328.926 401.608 330.518C411.805 332.69 422.658 328.829 430.09 320.387C440.075 309.043 439.915 292.728 429.709 281.376C422.082 272.894 409.961 269.147 399.553 272.056ZM150.465 340.077C149.311 340.708 145.033 344.487 140.96 348.476L133.555 355.727L128.013 354.538C109.183 350.5 91.8633 364.626 91.7972 384.076C91.7279 404.775 112.118 418.643 132.441 411.719C137.795 409.894 145.565 403.065 148.299 397.78C151.096 392.37 152.1 384.714 150.878 378.105L149.78 372.16L155.335 366.535L160.891 360.909H171.545C180.636 360.909 182.593 360.599 184.888 358.793C188.874 355.658 190.306 350.436 188.418 345.915C185.739 339.504 183.804 338.861 167.289 338.897C158.681 338.916 151.692 339.406 150.465 340.077ZM329.563 340.578C325.739 343.255 323.841 348.793 325.266 353.11C327.395 359.56 330.374 360.909 342.477 360.909H353.13L358.687 366.535L364.242 372.16L363.144 378.105C361.223 388.496 363.968 397.536 371.257 404.825C376.697 410.266 382.28 412.695 390.498 413.195C403.603 413.994 413.8 408.236 419.343 396.907C430.226 374.663 410.295 349.329 386.008 354.538L380.467 355.727L373.061 348.463C368.988 344.468 364.624 340.674 363.363 340.033C362.008 339.343 355.125 338.866 346.538 338.866C334.804 338.866 331.537 339.195 329.563 340.578Z" fill="white"/>
<defs>
<linearGradient id="paint0_linear_1558_1230" x1="482.244" y1="512" x2="-16.3991" y2="-87.3358" gradientUnits="userSpaceOnUse">
<stop stop-color="#6B46FF"/>
<stop offset="1" stop-color="#A28BFF"/>
</linearGradient>
</defs>
</svg>
