<svg width="93" height="93" viewBox="0 0 93 93" fill="none" xmlns="http://www.w3.org/2000/svg">
<rect x="0.468018" y="0.205078" width="91.9966" height="91.9966" rx="18" fill="url(#paint0_linear_1482_2476)"/>
<path opacity="0.2" fill-rule="evenodd" clip-rule="evenodd" d="M33.6566 19.7556C36.54 18.6833 40.9332 17.6871 44.4066 17.3177C54.5547 16.2386 65.2764 18.8912 73.7675 24.5813C73.8984 24.669 74.0223 24.7515 74.1396 24.8295C74.9898 25.3952 75.493 25.73 75.8193 26.1901C76.2923 26.8571 76.3938 27.7875 76.6424 30.0666C76.6661 30.2832 76.691 30.5119 76.7178 30.7537C77.0673 33.9167 76.6886 40.5353 75.9564 44.058C75.0101 48.6121 72.5657 54.6707 70.2099 58.301C65.4845 65.5838 59.3546 71.1144 51.8591 74.8584L48.9717 76.3007L46.5202 75.1243C43.5674 73.7073 39.8784 71.3371 37.185 69.1255C34.9182 67.2646 31.0627 63.3527 30.5624 62.4064C30.2662 61.8458 30.0047 61.7691 28.3945 61.7691H26.5633V59.7863V57.8036H30.2135H33.8634L35.477 59.7761C38.5222 63.498 42.981 67.2343 46.9161 69.3609L48.9994 70.4871L51.0232 69.3493C57.0407 65.9662 62.4977 60.6451 66.0162 54.7301C67.6029 52.0625 69.8777 46.4798 70.9713 42.5696C71.6822 40.0269 71.7409 39.4171 71.7409 34.5501C71.7409 30.7685 71.6415 29.163 71.3888 28.8586C70.8232 28.1774 65.1631 25.3605 62.4501 24.4099C56.555 22.3448 48.868 21.5908 43.264 22.5278C39.99 23.075 36.4508 24.0386 33.6447 25.1458C31.0723 26.1612 26.5868 28.6829 26.4186 29.2087C26.3418 29.4494 26.2472 31.3293 26.2087 33.3865L26.1384 37.1265L21.1108 37.1268H16.0833V35.1551V33.1834L18.5616 33.1016L21.04 33.0197L21.2547 30.2207C21.3731 28.6815 21.6292 27.0888 21.8243 26.6821C22.5531 25.1616 28.5327 21.6613 33.6566 19.7556ZM49.2229 33.1613V29.0543V24.9472H50.6111C52.8663 24.9472 58.2369 25.9791 60.9781 26.939C63.7214 27.8998 67.6772 29.8774 68.3561 30.6277C69.0486 31.393 69.2296 37.5426 68.6501 40.6036C67.71 45.5669 65.0948 51.7447 62.2958 55.6139C60.4425 58.1755 57.2976 61.4034 54.9056 63.1992C53.418 64.3157 49.7191 66.5842 49.386 66.5842C49.2963 66.5842 49.2229 63.6526 49.2229 60.0696V53.555H43.1331H37.0434V51.5722V49.5895H43.1331H49.2229V47.4652V45.3409H46.5321H43.8412V43.3581V41.3754H46.5321H49.2229V39.2511V37.1268H44.2661H39.3093V35.144V33.1613H44.2661H49.2229ZM41.292 28.0629V30.0456H43.558H45.824V28.0629V26.0802H43.558H41.292V28.0629ZM30.7983 37.1267H30.812V37.1268H33.0779H35.3439V37.1267H35.3449V33.1532H30.7983V37.1267ZM40.4423 45.3672L37.8934 45.3535H22.1977H22.1787V41.3808H22.1977H24.2974V41.3754H32.3698H40.4423V43.3712V45.3672ZM16.0833 53.5723H31.2544L33.3612 53.604V51.5969V49.5895L32.0829 49.5995H16.0833V53.5723ZM41.292 59.5031V61.4858H43.558H45.824V59.5031V57.5204H43.558H41.292V59.5031ZM23.1416 57.8182H16.0833V61.7917H23.1416V57.8182Z" fill="#DCDFE7"/>
<path fill-rule="evenodd" clip-rule="evenodd" d="M33.6566 18.78C36.54 17.7077 40.9332 16.7115 44.4066 16.3422C54.5547 15.263 65.2764 17.9156 73.7675 23.6057C73.8984 23.6934 74.0223 23.7759 74.1396 23.8539C74.9898 24.4196 75.493 24.7544 75.8193 25.2145C76.2923 25.8815 76.3938 26.8119 76.6424 29.091C76.6661 29.3076 76.691 29.5363 76.7178 29.7782C77.0673 32.9412 76.6886 39.5597 75.9564 43.0825C75.0101 47.6365 72.5657 53.6951 70.2099 57.3254C65.4845 64.6082 59.3546 70.1389 51.8591 73.8828L48.9717 75.3251L46.5202 74.1488C43.5674 72.7317 39.8784 70.3615 37.185 68.1499C34.9182 66.289 31.0627 62.3771 30.5624 61.4308C30.2662 60.8702 30.0047 60.7935 28.3945 60.7935H26.5633V58.8108V56.828H30.2135H33.8634L35.477 58.8006C38.5222 62.5224 42.981 66.2587 46.9161 68.3853L48.9994 69.5115L51.0232 68.3737C57.0407 64.9906 62.4977 59.6696 66.0162 53.7546C67.6029 51.087 69.8777 45.5042 70.9713 41.594C71.6822 39.0513 71.7409 38.4415 71.7409 33.5745C71.7409 29.7929 71.6415 28.1875 71.3888 27.883C70.8232 27.2018 65.1631 24.3849 62.4501 23.4343C56.555 21.3692 48.868 20.6152 43.264 21.5522C39.99 22.0994 36.4508 23.063 33.6447 24.1702C31.0723 25.1856 26.5868 27.7074 26.4186 28.2331C26.3418 28.4738 26.2472 30.3537 26.2087 32.4109L26.1384 36.1509L21.1108 36.1512H16.0833V34.1795V32.2078L18.5616 32.126L21.04 32.0441L21.2547 29.2451C21.3731 27.7059 21.6292 26.1133 21.8243 25.7065C22.5531 24.1861 28.5327 20.6857 33.6566 18.78ZM49.2229 32.1857V28.0787V23.9716H50.6111C52.8663 23.9716 58.2369 25.0035 60.9781 25.9634C63.7214 26.9242 67.6772 28.9018 68.3561 29.6521C69.0486 30.4174 69.2296 36.567 68.6501 39.628C67.71 44.5913 65.0948 50.7692 62.2958 54.6383C60.4425 57.1999 57.2976 60.4278 54.9056 62.2236C53.418 63.3401 49.7191 65.6086 49.386 65.6086C49.2963 65.6086 49.2229 62.6771 49.2229 59.094V52.5794H43.1331H37.0434V50.5967V48.6139H43.1331H49.2229V46.4896V44.3653H46.5321H43.8412V42.3826V40.3998H46.5321H49.2229V38.2755V36.1512H44.2661H39.3093V34.1685V32.1857H44.2661H49.2229ZM41.292 27.0873V29.0701H43.558H45.824V27.0873V25.1046H43.558H41.292V27.0873ZM30.7983 36.1508H30.812V36.1512H33.0779H35.3439V36.1508H35.3449V32.1773H30.7983V36.1508ZM40.4423 44.3916L37.9215 44.3781H22.1977H22.1787V40.4053H22.1977H24.2974V40.3998H32.3698H40.4423V42.3956V44.3916ZM16.0833 52.5964H31.2321L33.3612 52.6284V50.6213V48.6139L32.126 48.6236H16.0833V52.5964ZM41.292 58.5275V60.5102H43.558H45.824V58.5275V56.5448H43.558H41.292V58.5275ZM23.1416 56.8423H16.0833V60.8158H23.1416V56.8423Z" fill="#FCFCFC"/>
<defs>
<linearGradient id="paint0_linear_1482_2476" x1="86.9444" y1="92.2017" x2="-2.65231" y2="-15.4875" gradientUnits="userSpaceOnUse">
<stop stop-color="#6B46FF"/>
<stop offset="1" stop-color="#A28BFF"/>
</linearGradient>
</defs>
</svg>
